<svg xmlns="http://www.w3.org/2000/svg" viewBox="0 0 1920 1080" preserveAspectRatio="xMidYMid slice">
  <defs>
    <linearGradient id="sky" x1="0" y1="0" x2="0" y2="1">
      <stop offset="0%" stop-color="#0f1f4d"/>
      <stop offset="65%" stop-color="#09213f"/>
      <stop offset="100%" stop-color="#051427"/>
    </linearGradient>
    <radialGradient id="moon" cx="72%" cy="22%" r="22%">
      <stop offset="0%" stop-color="#ffe39a" stop-opacity="0.95"/>
      <stop offset="100%" stop-color="#ffe39a" stop-opacity="0"/>
    </radialGradient>
  </defs>
  <rect width="1920" height="1080" fill="url(#sky)"/>
  <circle cx="1380" cy="220" r="260" fill="url(#moon)"/>
  <g opacity="0.65" fill="#f9e6a7">
    <circle cx="180" cy="150" r="2"/><circle cx="360" cy="220" r="1.8"/><circle cx="520" cy="120" r="2.2"/>
    <circle cx="760" cy="200" r="1.6"/><circle cx="960" cy="130" r="2"/><circle cx="1110" cy="250" r="1.7"/>
    <circle cx="1280" cy="160" r="2"/><circle cx="1520" cy="120" r="2.2"/><circle cx="1710" cy="210" r="1.8"/>
  </g>
  <path d="M0 760 Q280 620 520 760 T980 740 T1440 770 T1920 730 L1920 1080 L0 1080 Z" fill="#13294f" opacity="0.7"/>
  <path d="M0 820 Q320 680 620 820 T1220 800 T1920 830 L1920 1080 L0 1080 Z" fill="#0b1f40" opacity="0.8"/>
  <rect y="900" width="1920" height="180" fill="#07152a"/>
</svg>
