<svg xmlns="http://www.w3.org/2000/svg" viewBox="0 0 1920 1080" preserveAspectRatio="xMidYMid slice">
  <defs>
    <linearGradient id="bg" x1="0" y1="0" x2="1" y2="1">
      <stop offset="0%" stop-color="#132f2f"/>
      <stop offset="100%" stop-color="#0a1f28"/>
    </linearGradient>
    <radialGradient id="mist" cx="50%" cy="55%" r="48%">
      <stop offset="0%" stop-color="#7fd6bf" stop-opacity="0.32"/>
      <stop offset="100%" stop-color="#7fd6bf" stop-opacity="0"/>
    </radialGradient>
  </defs>
  <rect width="1920" height="1080" fill="url(#bg)"/>
  <circle cx="960" cy="560" r="520" fill="url(#mist)"/>
  <path d="M0 780 Q240 620 520 760 T980 740 T1440 780 T1920 740 L1920 1080 L0 1080 Z" fill="#14373b"/>
  <path d="M0 860 Q260 720 600 850 T1240 830 T1920 860 L1920 1080 L0 1080 Z" fill="#0e282f"/>
  <g fill="#7fd6bf" opacity="0.34">
    <circle cx="240" cy="320" r="8"/><circle cx="430" cy="260" r="6"/><circle cx="710" cy="340" r="7"/>
    <circle cx="960" cy="290" r="8"/><circle cx="1220" cy="360" r="7"/><circle cx="1490" cy="280" r="6"/><circle cx="1710" cy="340" r="8"/>
  </g>
</svg>
